<svg width="175" height="76" viewBox="0 0 175 76" fill="none" xmlns="http://www.w3.org/2000/svg">
<path d="M-3.76066e-08 74.8955L0 37.1531L8.95772 37.1531L8.95772 74.8955L-3.76066e-08 74.8955ZM33.1095 74.8955L33.1095 60.3941C33.1095 59.6593 33.0339 58.9246 32.9206 58.2672C32.8072 57.6098 32.6182 56.9911 32.3158 56.4884C32.0134 55.9856 31.6355 55.5603 31.1441 55.2509C30.6528 54.9415 30.0102 54.7868 29.2543 54.7868C28.4984 54.7868 27.8181 54.9415 27.2511 55.2509C26.6842 55.5603 26.1928 55.9856 25.8149 56.4884C25.4369 56.9911 25.1345 57.6485 24.9455 58.3445C24.7566 59.0406 24.6432 59.7753 24.6432 60.5101L24.6432 74.8955L16.1012 74.8955L16.1012 48.3675L24.3786 48.3675L24.3786 52.0412L24.492 52.0412C24.7944 51.4612 25.2101 50.9198 25.7015 50.3784C26.1928 49.837 26.7976 49.373 27.4779 48.9476C28.1582 48.5609 28.8764 48.2515 29.7079 47.9808C30.5016 47.7488 31.3709 47.5941 32.278 47.5941C34.0166 47.5941 35.4907 47.9035 36.7002 48.5609C37.9097 49.2183 38.8924 50.0304 39.6483 51.0358C40.4042 52.0412 40.9334 53.2014 41.2735 54.5162C41.6137 55.8309 41.7649 57.1457 41.7649 58.4605L41.7649 74.8569L33.1095 74.8569L33.1095 74.8955ZM83.0762 55.947C83.0762 59.234 82.4715 62.0956 81.262 64.4932C80.0525 66.8907 78.5029 68.8629 76.5374 70.4098C74.572 71.9566 72.3799 73.078 69.8853 73.8128C67.4286 74.5475 64.934 74.8955 62.4016 74.8955L48.6438 74.8955L48.6438 37.1531L61.9859 37.1531C64.5938 37.1531 67.164 37.4624 69.6963 38.0812C72.2287 38.6999 74.4965 39.744 76.4619 41.1748C78.4273 42.6056 80.0525 44.5391 81.262 46.9754C82.4715 49.373 83.0762 52.3893 83.0762 55.947ZM73.8161 55.947C73.8161 53.8201 73.476 52.0412 72.7956 50.6491C72.1153 49.257 71.2082 48.1355 70.0743 47.2848C68.9404 46.434 67.6553 45.8539 66.2191 45.5059C64.7828 45.1579 63.3088 44.9645 61.7591 44.9645L57.3369 44.9645L57.3369 67.0067L61.5701 67.0067C63.1576 67.0067 64.7072 66.8134 66.1813 66.4654C67.6553 66.0786 68.9404 65.4986 70.0743 64.6092C71.2082 63.7584 72.1153 62.637 72.7956 61.2062C73.476 59.7753 73.8161 58.0352 73.8161 55.947ZM106.359 58.5766C106.359 57.1844 105.943 55.9856 105.074 55.0189C104.204 54.0521 102.957 53.5107 101.256 53.5107C100.425 53.5107 99.6688 53.6267 98.9506 53.8974C98.2703 54.1681 97.6656 54.5161 97.1364 54.9802C96.6073 55.4442 96.1915 55.9856 95.8891 56.6044C95.5868 57.2231 95.3978 57.8805 95.36 58.5379L106.359 58.5379L106.359 58.5766ZM114.22 61.9409L114.22 63.0237C114.22 63.3717 114.22 63.7197 114.183 64.0291L95.3978 64.0291C95.4734 64.7639 95.7002 65.4599 96.0403 66.04C96.4183 66.6587 96.8718 67.1614 97.4388 67.6255C98.0057 68.0508 98.6483 68.3989 99.3664 68.6696C100.085 68.9016 100.803 69.0563 101.596 69.0563C102.957 69.0563 104.091 68.7856 105.036 68.2829C105.981 67.7802 106.737 67.0841 107.341 66.272L113.275 70.1004C112.066 71.9179 110.441 73.31 108.475 74.2768C106.51 75.2436 104.167 75.7463 101.521 75.7463C99.5932 75.7463 97.7412 75.4369 96.0025 74.8182C94.2639 74.1995 92.7521 73.2714 91.4292 72.1113C90.1063 70.9511 89.0858 69.443 88.3677 67.7028C87.6496 65.9626 87.2338 63.9904 87.2338 61.7475C87.2338 59.582 87.6118 57.6098 88.3299 55.8696C89.048 54.1294 90.0307 52.6213 91.3158 51.3838C92.5631 50.1464 94.0371 49.2183 95.738 48.5222C97.4388 47.8261 99.2908 47.5168 101.256 47.5168C103.184 47.5168 104.922 47.8261 106.51 48.4835C108.097 49.1409 109.496 50.1077 110.63 51.3452C111.764 52.5826 112.671 54.0908 113.313 55.8696C113.88 57.6485 114.22 59.6593 114.22 61.9409ZM135.575 74.8955L126.353 74.8955L116.148 48.3675L125.559 48.3675L131.04 65.5759L131.191 65.5759L136.671 48.3675L145.78 48.3675L135.575 74.8955Z" fill="#ECF2FF"/>
<path fill-rule="evenodd" clip-rule="evenodd" d="M118.544 1.14063C125.575 4.62569 134.949 9.27245 140.808 9.27245C146.667 9.27245 150.182 8.11076 154.869 5.78738C159.556 3.464 167.758 3.464 172.445 11.5958C177.132 19.7276 174.789 29.0212 170.102 32.5062C165.415 35.9913 149.01 44.1231 125.575 35.9913C102.14 27.8595 103.312 10.4341 104.483 5.78738C105.655 1.14063 112.686 -1.71253 118.544 1.14063ZM122.06 13.9192L122.06 27.5907L130.662 27.5907L130.662 24.7063L125.375 24.7063L125.375 13.9192L122.06 13.9192ZM145.184 24.9038L146.25 27.5907L149.88 27.5907L144.237 13.9192L141.041 13.9192L135.319 27.5907L138.91 27.5907L139.897 24.9038L145.184 24.9038ZM140.883 22.296L142.619 17.5939L144.316 22.296L140.883 22.296ZM166.06 25.4965C166.336 24.9828 166.494 24.3506 166.494 23.5999C166.494 23.1653 166.415 22.7701 166.257 22.4145C166.099 22.0589 165.902 21.7428 165.665 21.4662C165.429 21.1896 165.152 20.9525 164.797 20.7945C164.442 20.6364 164.087 20.5179 163.692 20.4389L163.692 20.3598C164.363 20.1623 164.876 19.8067 165.31 19.293C165.744 18.7793 165.942 18.1471 165.942 17.3964C165.942 16.7246 165.784 16.132 165.507 15.6973C165.231 15.2627 164.837 14.9071 164.403 14.6305C163.968 14.3539 163.455 14.1958 162.903 14.0773C162.35 13.9587 161.798 13.9192 161.285 13.9192L155.839 13.9192L155.839 27.5907L161.285 27.5907C161.956 27.5907 162.587 27.5117 163.219 27.3931C163.85 27.2351 164.403 27.0375 164.876 26.7214C165.389 26.4053 165.784 26.0102 166.06 25.4965ZM162.272 16.8432C162.627 17.0803 162.785 17.3964 162.785 17.8705C162.785 18.3842 162.587 18.7398 162.272 18.9374C161.956 19.214 161.482 19.3325 160.851 19.3325L159.075 19.3325L159.075 16.5271L160.693 16.5271C161.403 16.5271 161.916 16.6456 162.272 16.8432ZM162.587 22.1379C163.021 22.375 163.219 22.7701 163.219 23.3233C163.219 23.6394 163.14 23.916 163.021 24.1531C162.863 24.3506 162.706 24.5087 162.469 24.6272C162.232 24.7458 161.995 24.8248 161.719 24.8643C161.688 24.8688 161.657 24.8732 161.627 24.8776C161.389 24.9122 161.175 24.9433 160.93 24.9433L159.075 24.9433L159.075 21.8218L160.89 21.8218C161.601 21.8218 162.153 21.9008 162.587 22.1379Z" fill="url(#paint0_linear_206_743)"/>
<defs>
<linearGradient id="paint0_linear_206_743" x1="104.624" y1="38.4765" x2="193.371" y2="8.68262" gradientUnits="userSpaceOnUse">
<stop stop-color="#51E5EC"/>
<stop offset="1" stop-color="#0DC195"/>
</linearGradient>
</defs>
</svg>
