<svg width="48" height="25" viewBox="0 0 48 25" fill="none" xmlns="http://www.w3.org/2000/svg">
<path d="M23.3547 5.51435H18.6591V24.1025H12.5386V5.51435H7.81055V0.138672H23.3547V5.51435Z" fill="white"/>
<path d="M6.1205 0.142578L0 0.142578V24.1037H6.1205V0.142578Z" fill="white"/>
<path d="M42.8543 21.4252C45.0309 19.7055 46.4416 17.4752 47.0864 14.7345H40.3987C39.4288 16.6212 37.4628 17.9119 35.1953 17.9119C34.2515 17.9119 33.3599 17.6883 32.5706 17.2911C31.8007 17.6981 30.6148 18.0515 29.119 17.857C29.558 17.657 30.4012 17.0805 30.9953 16.1328C29.9758 15.0804 29.3483 13.6459 29.3483 12.065C29.3483 8.83577 31.9661 6.21799 35.1953 6.21799C37.5023 6.21799 39.4973 7.55411 40.4485 9.49473H47.0461C46.455 6.67333 45.0577 4.40278 42.8543 2.68307C40.651 0.963369 38.0983 0.103516 35.1963 0.103516C31.8912 0.103516 29.0967 1.25894 26.8127 3.5698C24.5287 5.88066 23.3867 8.68862 23.3867 11.9937C23.3867 15.3525 24.5421 18.1873 26.853 20.4982C29.1907 22.809 32.0256 23.9645 35.3575 23.9645C38.1789 23.9645 40.6778 23.118 42.8543 21.4252Z" fill="white"/>
</svg>
