<svg width="233" height="36" viewBox="0 0 233 36" fill="none" xmlns="http://www.w3.org/2000/svg">
<path d="M35.0325 8.11674H27.9891V35.999H18.8083V8.11674H11.7163V0.0532227H35.0325V8.11674Z" fill="white"/>
<path d="M9.18075 0.0583496L0 0.0583496V36H9.18075V0.0583496Z" fill="white"/>
<path d="M64.282 31.9825C67.5468 29.403 69.6628 26.0576 70.6301 21.9464H60.5985C59.1436 24.7766 56.1946 26.7126 52.7934 26.7126C51.3777 26.7126 50.0403 26.3772 48.8564 25.7814C47.7015 26.3919 45.9228 26.9219 43.6791 26.6302C44.3374 26.3302 45.6022 25.4655 46.4934 24.0439C44.9642 22.4653 44.023 20.3136 44.023 17.9422C44.023 13.0984 47.9497 9.17172 52.7934 9.17172C56.254 9.17172 59.2464 11.1759 60.6733 14.0868H70.5697C69.683 9.85473 67.5871 6.4489 64.282 3.86934C60.9769 1.28978 57.1479 0 52.7949 0C47.8373 0 43.6455 1.73314 40.2195 5.19943C36.7936 8.66571 35.0806 12.8777 35.0806 17.8352C35.0806 22.8735 36.8137 27.1257 40.28 30.592C43.7866 34.0583 48.0388 35.7914 53.0367 35.7914C57.2688 35.7914 61.0173 34.5218 64.282 31.9825Z" fill="white"/>
<line x1="89.1802" y1="2.62268e-09" x2="89.1802" y2="36" stroke="white" stroke-opacity="0.5"/>
<path d="M108.795 25.4116H106.68V10.9199H108.795V25.4116Z" fill="white"/>
<path d="M118.055 12.8587H115.274V25.4116H113.159V12.8587H110.378V10.9199H118.055V12.8587Z" fill="white"/>
<path d="M135.644 21.8278C135.239 23.0028 134.553 23.9428 133.587 24.6478C132.634 25.3398 131.538 25.6858 130.297 25.6858C128.705 25.6858 127.379 25.1374 126.322 24.0408C125.264 22.931 124.736 21.5733 124.736 19.9674C124.736 18.3746 125.264 17.0299 126.322 15.9333C127.393 14.8235 128.724 14.2687 130.317 14.2687C131.518 14.2687 132.628 14.6342 133.646 15.3653C134.678 16.0964 135.343 17.0299 135.644 18.1658H133.392C132.739 16.808 131.72 16.1291 130.337 16.1291C129.253 16.1291 128.385 16.4946 127.732 17.2258C127.092 17.9569 126.772 18.8708 126.772 19.9674C126.772 21.038 127.092 21.9519 127.732 22.7091C128.385 23.4533 129.24 23.8253 130.297 23.8253C130.989 23.8253 131.603 23.6491 132.138 23.2966C132.673 22.9441 133.085 22.4545 133.372 21.8278H135.644Z" fill="white"/>
<path d="M148.724 19.9478C148.724 21.5145 148.156 22.8658 147.021 24.0016C145.885 25.1244 144.501 25.6858 142.869 25.6858C141.263 25.6858 139.886 25.1244 138.737 24.0016C137.588 22.8658 137.014 21.5014 137.014 19.9087C137.014 18.3289 137.588 16.9973 138.737 15.9137C139.899 14.817 141.276 14.2687 142.869 14.2687C144.475 14.2687 145.852 14.817 147.001 15.9137C148.15 17.0103 148.724 18.3551 148.724 19.9478ZM145.571 22.6895C146.316 21.9192 146.688 21.0053 146.688 19.9478C146.688 18.8903 146.316 17.9895 145.571 17.2453C144.827 16.5012 143.926 16.1291 142.869 16.1291C141.811 16.1291 140.911 16.5077 140.166 17.2649C139.422 18.0091 139.05 18.9099 139.05 19.9674C139.05 21.0249 139.422 21.9323 140.166 22.6895C140.911 23.4467 141.811 23.8253 142.869 23.8253C143.926 23.8253 144.827 23.4467 145.571 22.6895Z" fill="white"/>
<path d="M167.207 25.4116H165.171V19.3799C165.171 17.2127 164.315 16.1291 162.605 16.1291C161.626 16.1291 160.947 16.4163 160.568 16.9908C160.203 17.5521 160.02 18.342 160.02 19.3603V25.4116H157.983V19.3799C157.983 18.3746 157.833 17.6305 157.533 17.1474C157.089 16.4685 156.417 16.1291 155.516 16.1291C153.727 16.1291 152.833 17.2062 152.833 19.3603V25.4116H150.796V14.5624H152.676V15.7374H152.716C153.172 15.2021 153.629 14.8235 154.086 14.6016C154.543 14.3796 155.124 14.2687 155.829 14.2687C156.521 14.2687 157.187 14.4319 157.827 14.7583C158.467 15.0716 158.923 15.5155 159.198 16.0899C159.968 14.8758 161.162 14.2687 162.781 14.2687C164.204 14.2687 165.295 14.6799 166.052 15.5024C166.822 16.3249 167.207 17.4477 167.207 18.8708V25.4116Z" fill="white"/>
<path d="M186.217 25.4116H184.18V19.3799C184.18 17.2127 183.325 16.1291 181.615 16.1291C180.636 16.1291 179.957 16.4163 179.578 16.9908C179.212 17.5521 179.03 18.342 179.03 19.3603V25.4116H176.993V19.3799C176.993 18.3746 176.843 17.6305 176.543 17.1474C176.099 16.4685 175.426 16.1291 174.526 16.1291C172.737 16.1291 171.843 17.2062 171.843 19.3603V25.4116H169.806V14.5624H171.686V15.7374H171.725C172.182 15.2021 172.639 14.8235 173.096 14.6016C173.553 14.3796 174.134 14.2687 174.839 14.2687C175.531 14.2687 176.197 14.4319 176.836 14.7583C177.476 15.0716 177.933 15.5155 178.207 16.0899C178.977 14.8758 180.172 14.2687 181.791 14.2687C183.214 14.2687 184.304 14.6799 185.061 15.5024C185.832 16.3249 186.217 17.4477 186.217 18.8708V25.4116Z" fill="white"/>
<path d="M198.029 25.4116H196.168V24.2366H196.129C195.842 24.7327 195.398 25.0983 194.798 25.3333C194.21 25.5683 193.59 25.6858 192.937 25.6858C191.71 25.6858 190.679 25.3267 189.843 24.6087C188.89 23.7862 188.413 22.3958 188.413 20.4374V14.5624H190.45V20.4374C190.45 21.4949 190.653 22.3239 191.057 22.9245C191.462 23.5251 192.16 23.8253 193.153 23.8253C194.132 23.8253 194.85 23.5055 195.307 22.8658C195.764 22.226 195.992 21.397 195.992 20.3787V14.5624H198.029V25.4116Z" fill="white"/>
<path d="M210.269 25.4116H208.232V19.517C208.232 17.2584 207.331 16.1291 205.53 16.1291C204.577 16.1291 203.859 16.4489 203.376 17.0887C202.906 17.7153 202.671 18.5183 202.671 19.4974V25.4116H200.634V14.5624H202.534V15.7178H202.573C203.304 14.7517 204.361 14.2687 205.745 14.2687C207.482 14.2687 208.761 14.9149 209.584 16.2074C210.04 16.9124 210.269 17.8394 210.269 18.9883V25.4116Z" fill="white"/>
<path d="M214.911 13.3091H212.874V10.9199H214.911V13.3091ZM214.911 25.4116H212.874V14.5624H214.911V25.4116Z" fill="white"/>
<path d="M221.69 16.4228H219.908V25.4116H217.871V16.4228H216.402V14.5624H217.871V10.9199H219.908V14.5624H221.69V16.4228Z" fill="white"/>
<path d="M232.8 14.5624L226.808 29.0345H224.693L226.279 25.1962L221.951 14.5624H224.144L227.336 22.9833L230.607 14.5624H232.8Z" fill="white"/>
</svg>
