<svg width="47" height="46" viewBox="0 0 47 46" fill="none" xmlns="http://www.w3.org/2000/svg">
<rect x="0.5" width="46" height="46" rx="23" fill="white"/>
<path d="M28.4534 21.5026L30.2168 19.7393C30.5097 19.4464 30.5097 18.9715 30.2168 18.6786L27.8408 16.3027C27.5479 16.0098 27.0731 16.0098 26.7802 16.3027L25.0168 18.066M28.4534 21.5026L20.2392 29.7169C20.0985 29.8575 19.9078 29.9365 19.7089 29.9365L16.9586 29.9365C16.7515 29.9365 16.5837 29.7687 16.5836 29.5616L16.583 26.8107C16.583 26.6117 16.662 26.4209 16.8027 26.2802L25.0168 18.066M28.4534 21.5026L25.0168 18.066" stroke="black" stroke-width="1.4" stroke-linejoin="round"/>
<path d="M30.25 29.9365L19.75 29.9365" stroke="black" stroke-width="1.4" stroke-linecap="round" stroke-linejoin="round"/>
</svg>
